<?xml version="1.0" standalone="no"?>
<!DOCTYPE svg PUBLIC "-//W3C//DTD SVG 20010904//EN"
 "http://www.w3.org/TR/2001/REC-SVG-20010904/DTD/svg10.dtd">
<svg version="1.0" xmlns="http://www.w3.org/2000/svg"
 width="1198.000000pt" height="1112.000000pt" viewBox="0 0 1198.000000 1112.000000"
 preserveAspectRatio="xMidYMid meet">

<g transform="translate(0.000000,1112.000000) scale(0.100000,-0.100000)"
fill="#000000" stroke="none">
<path d="M1786 11095 c-148 -21 -336 -71 -478 -127 -707 -279 -1201 -924
-1288 -1683 -6 -55 -10 -456 -10 -1042 l0 -953 584 0 585 0 4 943 c3 936 3
942 25 1027 68 258 246 477 477 586 261 124 530 119 786 -12 227 -117 384
-319 456 -585 15 -58 17 -155 20 -1012 l4 -947 587 2 587 3 0 960 c0 867 -2
971 -18 1078 -104 695 -517 1267 -1132 1568 -190 93 -350 145 -570 185 -124
23 -486 28 -619 9z"/>
<path d="M10102 6493 c-65 -32 -84 -126 -36 -182 76 -90 234 -43 234 70 0 54
-22 93 -64 113 -43 20 -92 20 -134 -1z"/>
<path d="M5740 6443 c-50 -10 -127 -46 -177 -83 -73 -56 -113 -138 -113 -233
0 -92 15 -139 62 -192 53 -60 136 -98 291 -135 137 -32 197 -57 221 -92 24
-33 19 -63 -14 -102 -50 -57 -172 -72 -251 -30 -37 18 -76 67 -84 104 l-7 30
-124 0 -124 0 0 -33 c0 -90 59 -204 132 -257 90 -66 249 -97 405 -79 200 22
316 112 342 263 26 150 -42 277 -184 342 -28 13 -113 39 -188 58 -174 44 -207
66 -207 133 1 60 57 97 149 97 85 0 128 -23 156 -82 l19 -42 123 0 123 0 0 30
c0 80 -58 181 -137 237 -74 52 -156 73 -282 72 -58 -1 -117 -4 -131 -6z"/>
<path d="M10 5895 l0 -545 380 0 380 0 0 105 0 105 -247 2 -248 3 0 110 0 110
228 3 227 2 0 105 0 105 -230 0 -231 0 3 113 3 112 248 3 247 2 0 105 0 105
-380 0 -380 0 0 -545z"/>
<path d="M3740 5895 l0 -545 130 0 130 0 0 545 0 545 -130 0 -130 0 0 -545z"/>
<path d="M1202 6169 c-161 -27 -252 -118 -252 -253 0 -78 28 -137 83 -175 54
-36 87 -47 230 -76 136 -27 170 -44 165 -82 -5 -41 -49 -67 -111 -67 -63 1
-92 15 -117 56 l-18 30 -123 -1 c-68 -1 -125 -4 -127 -6 -11 -10 11 -77 39
-118 71 -107 252 -165 430 -138 187 29 293 128 294 273 0 58 -4 72 -30 109
-43 61 -109 91 -273 124 -157 30 -182 42 -182 85 0 86 178 91 219 6 l13 -29
116 6 c63 4 116 8 118 10 2 2 -3 26 -11 53 -45 152 -234 231 -463 193z"/>
<path d="M2130 6167 c-120 -28 -217 -105 -265 -210 -55 -119 -53 -295 5 -413
74 -152 255 -236 443 -205 172 28 273 126 303 294 l6 37 -125 0 -124 0 -7 -31
c-3 -17 -21 -46 -40 -65 -30 -30 -40 -34 -85 -34 -42 0 -56 5 -86 31 -91 81
-84 323 12 386 38 25 114 24 150 -3 15 -11 35 -40 43 -62 l14 -42 123 0 c68 0
123 3 123 8 0 4 -6 33 -14 65 -26 109 -112 199 -222 233 -69 21 -189 26 -254
11z"/>
<path d="M3054 6165 c-34 -7 -77 -21 -95 -30 -131 -67 -209 -208 -209 -380 0
-230 126 -384 341 -416 195 -29 372 57 444 214 54 117 54 287 0 404 -78 171
-270 254 -481 208z m191 -216 c95 -84 84 -337 -18 -399 -56 -34 -122 -20 -166
36 -71 91 -51 324 33 375 49 30 108 25 151 -12z"/>
<path d="M4440 6166 c-72 -17 -97 -28 -147 -65 -45 -32 -89 -99 -99 -148 -6
-30 -6 -30 48 -36 29 -4 83 -7 120 -7 59 0 67 2 73 21 16 51 133 78 183 43 48
-33 48 -89 1 -114 -11 -6 -70 -17 -132 -25 -178 -23 -239 -49 -292 -123 -28
-41 -30 -49 -30 -137 0 -87 2 -96 30 -137 20 -29 48 -52 87 -71 49 -25 69 -29
140 -29 105 0 155 19 208 80 l40 45 0 -57 0 -56 125 0 125 0 0 280 c0 161 -5
300 -11 329 -19 92 -85 158 -194 195 -68 23 -206 29 -275 12z m220 -496 c0
-51 -20 -98 -54 -129 -34 -32 -124 -41 -161 -17 -52 34 -52 98 0 132 21 14
148 47 203 53 8 1 12 -13 12 -39z"/>
<path d="M7885 6171 c-66 -17 -120 -60 -162 -127 -10 -16 -12 -7 -12 54 l-1
73 -127 -3 -128 -3 -3 -562 -2 -563 130 0 130 0 1 223 c0 176 3 218 12 202 28
-47 95 -102 140 -115 64 -17 171 -9 224 19 125 63 188 197 187 396 -2 197 -70
329 -200 386 -48 22 -145 32 -189 20z m65 -239 c64 -63 78 -201 31 -306 -49
-113 -187 -114 -244 -2 -25 48 -34 164 -17 226 7 27 26 59 50 82 34 34 43 38
90 38 47 0 56 -4 90 -38z"/>
<path d="M8724 6170 c-221 -47 -348 -257 -305 -506 33 -189 144 -297 334 -325
190 -28 360 41 426 172 17 34 31 68 31 76 0 10 -26 13 -118 13 -117 0 -117 0
-145 -29 -89 -95 -253 -45 -274 82 l-6 37 272 0 271 0 0 84 c0 105 -26 193
-78 261 -39 52 -121 108 -182 125 -51 15 -178 21 -226 10z m166 -198 c37 -18
80 -74 80 -103 0 -18 -11 -19 -151 -19 l-151 0 6 26 c11 44 38 76 81 95 51 23
91 24 135 1z"/>
<path d="M9765 6168 c-41 -14 -82 -55 -110 -108 l-24 -45 -1 78 0 77 -125 0
-125 0 0 -410 0 -410 130 0 130 0 0 240 c0 262 4 288 55 328 40 32 92 43 153
33 l52 -8 0 112 c0 108 -1 113 -22 119 -33 8 -78 6 -113 -6z"/>
<path d="M10770 6167 c-120 -28 -217 -105 -265 -210 -54 -117 -54 -287 0 -404
72 -157 249 -243 444 -214 226 33 352 199 338 446 -10 190 -104 323 -262 371
-70 21 -189 26 -255 11z m193 -220 c42 -42 59 -102 59 -199 0 -127 -50 -206
-134 -215 -89 -9 -146 63 -155 197 -11 154 45 250 147 250 43 0 54 -5 83 -33z"/>
<path d="M11848 6170 c-48 -14 -86 -49 -112 -101 l-25 -51 -3 73 -3 74 -125 0
-125 0 -3 -407 -2 -408 129 0 129 0 4 243 c3 206 6 247 20 274 37 68 108 98
196 84 l52 -8 0 112 c0 108 -1 113 -22 119 -30 8 -77 6 -110 -4z"/>
<path d="M6472 5858 c3 -296 4 -316 24 -359 52 -112 148 -165 280 -157 91 6
154 41 202 112 l32 48 0 -76 0 -76 125 0 125 0 0 410 0 410 -130 0 -130 0 0
-247 c0 -222 -2 -252 -19 -290 -11 -23 -31 -49 -46 -59 -36 -23 -112 -23 -147
0 -54 35 -58 60 -58 340 l0 256 -131 0 -130 0 3 -312z"/>
<path d="M10040 5760 l0 -410 130 0 130 0 0 410 0 410 -130 0 -130 0 0 -410z"/>
<path d="M9502 4650 c-70 -43 -77 -136 -16 -189 64 -57 156 -49 201 18 35 51
31 103 -10 148 -29 31 -41 37 -88 40 -42 3 -61 0 -87 -17z"/>
<path d="M570 4393 l0 -206 -28 41 c-55 82 -144 121 -245 108 -184 -25 -287
-174 -287 -416 0 -158 42 -275 125 -348 57 -50 119 -72 202 -72 97 0 166 37
214 115 l19 30 0 -67 0 -68 130 0 130 0 0 545 0 545 -130 0 -130 0 0 -207z
m-72 -283 c98 -60 102 -293 8 -380 -22 -20 -38 -25 -81 -25 -43 0 -59 5 -81
25 -45 41 -67 104 -67 190 0 134 54 210 148 210 23 0 54 -9 73 -20z"/>
<path d="M2280 4495 l0 -105 163 -2 162 -3 3 -437 2 -438 130 0 130 0 0 440 0
440 165 0 165 0 0 105 0 105 -460 0 -460 0 0 -105z"/>
<path d="M7040 4055 l0 -545 130 0 130 0 0 545 0 545 -130 0 -130 0 0 -545z"/>
<path d="M1285 4324 c-201 -49 -318 -247 -285 -484 27 -194 141 -311 330 -341
188 -29 370 43 434 173 44 88 44 88 -93 88 -114 0 -119 -1 -134 -24 -9 -13
-36 -32 -61 -41 -92 -35 -193 10 -217 97 -19 71 -30 68 271 68 l270 0 0 38
c-1 130 -40 248 -106 321 -92 103 -250 143 -409 105z m178 -188 c43 -18 75
-55 83 -94 l7 -32 -153 0 c-135 0 -151 2 -146 16 3 9 6 19 6 24 0 5 12 23 27
41 47 55 113 72 176 45z"/>
<path d="M3510 4327 c-150 -34 -253 -140 -290 -296 -18 -77 -8 -231 19 -303
63 -165 254 -259 460 -229 161 24 267 106 306 239 6 22 6 22 -113 22 l-120 0
-34 -34 c-44 -44 -109 -56 -172 -32 -24 9 -52 26 -61 36 -19 21 -46 109 -38
123 2 4 126 7 275 7 l271 0 -6 93 c-14 235 -142 369 -366 382 -43 3 -100 -1
-131 -8z m180 -196 c34 -18 61 -54 75 -98 l6 -23 -150 0 c-140 0 -151 1 -151
19 0 29 43 85 80 103 45 23 96 23 140 -1z"/>
<path d="M4442 4325 c-161 -35 -265 -155 -293 -336 -28 -175 43 -353 171 -434
117 -74 307 -81 437 -18 86 42 153 130 168 218 4 22 9 48 12 58 4 15 -6 17
-120 17 l-124 0 -7 -31 c-3 -17 -21 -46 -40 -65 -30 -30 -40 -34 -86 -34 -47
0 -56 4 -90 38 -43 43 -60 92 -60 175 0 116 45 205 113 222 69 18 147 -29 162
-95 l7 -30 124 0 124 0 -6 33 c-19 109 -74 193 -159 242 -48 29 -158 55 -225
54 -25 0 -74 -7 -108 -14z"/>
<path d="M5519 4327 c-61 -17 -106 -51 -140 -105 l-28 -44 -3 73 -3 74 -122 3
-123 3 0 -411 0 -410 130 0 130 0 0 250 c0 266 4 294 49 334 14 13 41 21 79
24 48 3 62 0 86 -19 52 -41 56 -65 56 -339 l0 -250 131 0 130 0 -3 308 c-3
298 -4 309 -27 359 -26 58 -84 117 -138 139 -49 21 -150 26 -204 11z"/>
<path d="M6368 4330 c-109 -19 -221 -97 -267 -189 -70 -135 -67 -335 6 -461
58 -100 155 -162 284 -181 305 -45 526 180 480 490 -38 250 -237 386 -503 341z
m177 -221 c95 -84 84 -337 -18 -399 -56 -34 -122 -20 -166 36 -72 91 -51 324
33 375 49 30 108 25 151 -12z"/>
<path d="M7770 4327 c-120 -28 -217 -105 -266 -211 -76 -166 -38 -406 82 -516
157 -145 443 -142 592 7 135 135 150 418 32 582 -84 116 -276 176 -440 138z
m195 -221 c40 -43 59 -110 58 -202 -1 -122 -53 -202 -135 -211 -58 -6 -103 23
-131 85 -31 68 -31 218 1 279 32 61 65 83 125 83 44 0 54 -4 82 -34z"/>
<path d="M8668 4326 c-97 -26 -166 -93 -210 -205 -19 -48 -22 -75 -23 -196 0
-161 12 -210 73 -290 111 -146 366 -155 459 -16 l23 34 0 -103 c0 -102 0 -102
-33 -135 -58 -58 -189 -56 -240 5 l-24 28 -117 -6 c-85 -3 -119 -9 -123 -18
-8 -22 35 -101 75 -135 87 -77 242 -112 398 -91 145 19 245 78 297 176 22 40
22 48 25 499 l3 457 -131 0 -130 0 0 -72 0 -71 -28 42 c-64 94 -171 130 -294
97z m250 -216 c50 -30 74 -93 74 -192 0 -98 -27 -160 -82 -190 -41 -23 -106
-20 -146 7 -82 54 -92 274 -16 358 37 41 117 49 170 17z"/>
<path d="M10142 4325 c-108 -24 -192 -88 -227 -172 -26 -61 -21 -69 38 -77 28
-3 81 -6 117 -6 62 0 66 2 82 30 20 36 53 50 114 50 55 0 94 -33 94 -79 0 -45
-31 -60 -166 -76 -145 -18 -199 -35 -251 -80 -57 -48 -76 -95 -76 -180 0 -83
23 -137 78 -183 47 -38 96 -52 185 -52 103 0 146 16 203 73 l47 48 0 -55 0
-56 120 0 120 0 0 309 0 309 -28 53 c-32 62 -95 110 -175 134 -75 23 -200 27
-275 10z m218 -514 c0 -93 -51 -141 -150 -141 -91 0 -129 68 -72 130 22 25 43
34 112 49 47 10 91 19 98 20 8 1 12 -17 12 -58z"/>
<path d="M9450 3920 l0 -410 130 0 130 0 0 410 0 410 -130 0 -130 0 0 -410z"/>
<path d="M5144 2792 c-47 -23 -77 -60 -93 -117 -22 -82 -20 -85 59 -85 60 0
70 2 70 18 0 27 29 62 52 62 11 0 47 -18 80 -40 53 -35 67 -40 118 -40 96 0
159 63 175 173 l7 48 -67 -3 c-67 -3 -67 -3 -79 -38 -16 -52 -57 -53 -130 -4
-70 46 -131 54 -192 26z"/>
<path d="M1765 2769 c-174 -16 -314 -115 -390 -274 -43 -91 -58 -167 -58 -290
1 -178 47 -301 152 -405 104 -103 212 -144 376 -143 154 1 266 45 356 140 88
93 119 189 119 369 l0 104 -235 0 -235 0 0 -100 0 -100 110 0 110 0 -6 -27
c-24 -101 -99 -153 -219 -153 -74 0 -126 18 -168 58 -91 86 -120 281 -65 430
40 107 117 162 228 162 98 0 171 -44 194 -118 7 -21 12 -22 142 -22 74 0 134
4 134 9 0 34 -46 144 -78 186 -98 129 -267 192 -467 174z"/>
<path d="M4390 2585 l0 -95 -55 0 -55 0 0 -94 0 -95 53 -3 52 -3 5 -245 c4
-207 8 -250 22 -277 23 -42 80 -88 127 -102 71 -21 271 -9 271 17 0 6 -8 42
-35 159 -4 19 -10 21 -40 16 -23 -4 -43 0 -60 11 l-25 16 0 205 0 205 75 0 76
0 -3 93 -3 92 -72 3 -73 3 0 94 0 95 -130 0 -130 0 0 -95z"/>
<path d="M305 2487 c-122 -32 -197 -93 -252 -205 l-38 -76 0 -130 c1 -112 4
-139 23 -188 66 -166 255 -259 461 -229 160 24 265 105 302 233 l7 27 -116 3
-117 3 -35 -37 c-27 -28 -46 -38 -84 -43 -58 -9 -128 16 -158 56 -20 27 -40
97 -32 111 3 4 126 8 275 8 l269 0 0 61 c0 194 -91 338 -250 394 -61 22 -193
28 -255 12z m185 -196 c34 -18 61 -54 75 -98 l6 -23 -155 0 -155 0 11 33 c30
91 134 133 218 88z"/>
<path d="M2765 2485 c-157 -40 -260 -161 -284 -336 -24 -174 33 -338 144 -418
152 -109 422 -101 557 18 37 33 88 121 88 153 0 15 -13 18 -112 20 l-113 3
-30 -31 c-43 -45 -103 -61 -163 -45 -58 15 -87 41 -108 97 -29 77 -39 74 266
74 l270 0 0 53 c0 76 -25 180 -57 238 -36 68 -111 133 -181 159 -74 28 -198
35 -277 15z m178 -189 c42 -17 87 -70 87 -102 l0 -24 -151 0 c-134 0 -150 2
-145 16 3 9 6 19 6 24 0 5 12 23 27 41 47 55 112 72 176 45z"/>
<path d="M3700 2494 c-124 -22 -214 -75 -249 -146 -28 -60 -29 -163 -1 -218
38 -75 103 -108 280 -142 134 -25 167 -39 176 -73 9 -35 -19 -63 -72 -75 -72
-16 -144 14 -165 69 -8 20 -14 22 -40 17 -18 -3 -76 -6 -129 -6 l-98 0 10 -37
c26 -100 97 -170 203 -202 175 -54 371 -26 477 68 108 95 108 272 0 343 -51
34 -102 50 -247 78 -91 18 -125 29 -142 46 -29 29 -29 36 0 69 47 56 176 38
201 -27 9 -26 15 -28 61 -28 27 0 80 3 118 7 64 6 67 7 67 32 -1 37 -49 120
-90 153 -54 43 -138 68 -243 73 -51 2 -103 2 -117 -1z"/>
<path d="M5213 2490 c-56 -12 -125 -43 -168 -75 -31 -25 -95 -131 -95 -160 0
-13 85 -25 181 -25 54 0 60 2 73 28 18 35 54 52 112 52 37 0 51 -6 75 -29 28
-29 36 -55 21 -77 -15 -23 -56 -36 -165 -49 -138 -18 -170 -27 -229 -64 -68
-43 -93 -95 -93 -196 0 -70 4 -86 28 -127 18 -31 44 -57 74 -75 41 -24 61 -28
145 -31 90 -4 102 -2 153 23 35 16 65 40 80 63 l25 37 0 -58 0 -57 125 0 125
0 0 293 c0 165 -4 308 -10 328 -23 82 -101 156 -193 184 -63 19 -206 27 -264
15z m207 -508 c0 -93 -59 -152 -151 -152 -59 0 -99 29 -99 71 0 38 14 65 43
81 18 10 153 42 195 47 8 1 12 -14 12 -47z"/>
<path d="M6140 2486 c-124 -27 -228 -113 -271 -224 -31 -79 -38 -245 -14 -328
44 -155 154 -248 323 -274 183 -29 355 46 429 187 44 83 56 149 51 263 -4 82
-10 108 -35 162 -41 87 -92 141 -167 178 -100 49 -204 61 -316 36z m189 -211
c42 -36 66 -105 66 -195 0 -171 -97 -271 -205 -212 -105 58 -121 303 -25 399
29 29 40 33 83 33 39 0 57 -6 81 -25z"/>
<path d="M2275 718 c-22 -40 -41 -76 -43 -80 -2 -5 9 -8 25 -8 23 0 35 10 66
58 21 31 45 67 54 80 15 22 15 22 -24 22 -38 0 -40 -2 -78 -72z"/>
<path d="M7187 739 c-94 -15 -168 -77 -215 -178 -30 -66 -41 -213 -23 -302 23
-112 110 -215 204 -240 148 -40 296 21 357 146 28 59 26 75 -10 75 -25 0 -32
-6 -45 -37 -62 -147 -260 -180 -372 -62 -58 61 -78 121 -78 234 0 113 20 173
78 234 112 118 310 85 372 -61 13 -32 20 -38 45 -38 36 0 38 16 10 75 -55 114
-185 177 -323 154z"/>
<path d="M10 376 l0 -366 30 0 30 0 0 139 0 139 128 3 c117 4 131 6 174 31
113 67 134 266 37 355 -49 45 -95 56 -251 61 l-148 4 0 -366z m318 280 c85
-44 105 -180 38 -255 -36 -40 -77 -51 -191 -51 l-105 0 0 158 c0 87 3 162 8
166 14 15 215 1 250 -18z"/>
<path d="M1215 728 c-3 -7 -4 -171 -3 -363 l3 -350 30 0 30 0 0 360 0 360 -28
3 c-16 2 -29 -2 -32 -10z"/>
<path d="M1452 728 c-7 -7 -12 -21 -12 -33 0 -12 5 -26 12 -33 29 -29 78 -7
78 35 0 35 -53 56 -78 31z"/>
<path d="M3782 728 c-28 -28 -7 -78 33 -78 42 0 59 44 29 74 -18 19 -45 21
-62 4z"/>
<path d="M5828 598 l-3 -143 -19 32 c-32 51 -86 76 -161 71 -94 -6 -155 -56
-191 -155 -18 -52 -17 -178 2 -242 48 -163 260 -214 348 -84 l25 36 3 -49 c3
-45 5 -49 31 -52 l27 -3 0 365 0 366 -30 0 -29 0 -3 -142z m-83 -117 c48 -26
85 -110 85 -192 0 -36 -7 -86 -15 -110 -57 -161 -250 -155 -299 10 -61 205 74
377 229 292z"/>
<path d="M8282 728 c-28 -28 -7 -78 33 -78 42 0 59 44 29 74 -18 19 -45 21
-62 4z"/>
<path d="M9395 728 c-3 -7 -4 -171 -3 -363 l3 -350 28 -3 c26 -3 27 -2 27 49
l0 52 43 -46 c99 -106 256 -77 323 60 26 53 29 67 28 158 0 108 -12 147 -60
204 -80 95 -237 96 -301 1 l-22 -32 -3 138 -3 139 -28 3 c-16 2 -29 -2 -32
-10z m277 -234 c35 -8 82 -61 99 -111 19 -55 17 -150 -4 -205 -45 -117 -171
-152 -250 -70 -83 87 -80 282 6 361 26 24 80 42 107 35 8 -2 27 -6 42 -10z"/>
<path d="M1730 620 l0 -60 -40 0 c-38 0 -40 -2 -40 -30 0 -28 2 -30 40 -30
l40 0 0 -202 c1 -146 4 -210 14 -226 22 -40 66 -62 125 -62 50 0 53 1 47 23
-3 12 -6 25 -6 30 0 4 -18 7 -39 7 -31 0 -44 6 -60 26 -20 25 -21 40 -21 215
l0 189 55 0 c54 0 55 0 55 30 0 30 -1 30 -55 30 l-55 0 0 60 0 60 -30 0 -30 0
0 -60z"/>
<path d="M722 534 c-92 -46 -140 -152 -129 -285 13 -150 100 -241 232 -243
148 -2 240 108 238 285 -1 163 -93 268 -234 269 -39 0 -70 -7 -107 -26z m159
-39 c100 -24 152 -208 94 -332 -48 -105 -167 -134 -250 -62 -96 85 -92 300 7
370 32 23 83 39 108 33 8 -2 27 -6 41 -9z"/>
<path d="M1450 285 l0 -275 30 0 30 0 0 275 0 275 -30 0 -30 0 0 -275z"/>
<path d="M2165 541 c-91 -42 -139 -132 -140 -261 0 -74 4 -93 29 -143 34 -71
86 -111 162 -127 84 -18 154 1 210 54 50 49 54 63 20 76 -21 8 -30 4 -63 -30
-60 -59 -141 -66 -214 -17 -40 26 -79 98 -79 144 l0 33 201 0 202 0 -6 60
c-11 104 -57 177 -132 211 -52 24 -138 24 -190 0z m145 -46 c54 -15 110 -91
110 -150 l0 -25 -165 0 c-163 0 -165 0 -165 22 0 35 39 106 72 129 32 23 83
39 108 34 8 -2 26 -7 40 -10z"/>
<path d="M2740 538 c-50 -27 -103 -96 -120 -156 -17 -62 -12 -166 11 -226 41
-112 156 -173 271 -146 58 14 115 59 134 107 20 46 18 53 -16 53 -22 0 -33 -7
-45 -29 -66 -129 -248 -94 -291 57 -30 101 -2 221 62 271 79 62 198 37 234
-49 10 -24 19 -30 41 -30 35 0 37 15 9 70 -32 62 -89 94 -174 98 -60 3 -78 0
-116 -20z"/>
<path d="M3200 286 l0 -276 30 0 30 0 0 191 c0 158 3 197 17 226 23 49 66 73
131 73 46 0 57 -4 90 -34 l37 -34 3 -211 3 -211 30 0 30 0 -3 224 c-3 209 -4
227 -24 252 -34 46 -70 67 -123 72 -75 7 -117 -5 -156 -43 l-34 -34 -3 37 c-3
32 -7 37 -30 40 l-28 3 0 -275z"/>
<path d="M3780 285 l0 -275 30 0 30 0 0 275 0 275 -30 0 -30 0 0 -275z"/>
<path d="M4134 541 c-180 -82 -191 -405 -18 -507 39 -23 60 -28 114 -28 101 0
176 51 200 135 8 28 7 29 -24 29 -28 0 -36 -5 -46 -30 -27 -66 -109 -95 -185
-65 -77 29 -115 100 -115 214 1 142 93 236 206 211 41 -10 92 -53 100 -87 5
-17 13 -23 33 -23 15 0 30 3 34 6 9 9 -20 75 -46 103 -54 59 -172 79 -253 42z"/>
<path d="M4695 541 c-142 -66 -188 -299 -88 -444 64 -92 199 -121 296 -64 172
101 168 415 -6 502 -63 31 -143 33 -202 6z m182 -63 c48 -29 87 -115 87 -193
0 -179 -130 -275 -262 -195 -74 45 -107 209 -63 305 48 103 147 138 238 83z"/>
<path d="M6195 541 c-72 -32 -118 -102 -134 -200 -24 -146 41 -286 148 -323
98 -34 228 -1 277 71 l24 36 -29 12 c-28 12 -32 10 -68 -26 -105 -105 -269
-37 -290 119 l-6 40 202 0 201 0 0 38 c0 100 -57 198 -135 233 -52 24 -138 24
-190 0z m180 -62 c35 -21 72 -80 77 -124 l3 -30 -167 -3 c-189 -3 -185 -5
-149 73 47 101 148 137 236 84z"/>
<path d="M7792 539 c-87 -44 -132 -133 -132 -260 0 -140 72 -244 185 -270 157
-35 285 86 285 269 0 118 -37 200 -112 249 -57 39 -163 44 -226 12z m183 -58
c113 -64 128 -282 26 -374 -129 -116 -296 6 -278 203 14 156 135 238 252 171z"/>
<path d="M8280 285 l0 -275 30 0 30 0 0 275 0 275 -30 0 -30 0 0 -275z"/>
<path d="M8520 285 l0 -275 30 0 30 0 0 188 c0 162 3 193 19 229 35 77 132 99
193 44 l33 -29 3 -216 3 -216 30 0 29 0 0 183 c0 100 5 199 10 219 25 87 135
119 202 59 l33 -29 3 -216 3 -216 30 0 29 0 0 218 c0 243 -5 267 -69 309 -67
45 -205 19 -233 -42 -14 -31 -22 -31 -36 0 -38 82 -201 88 -260 9 l-21 -29 -1
43 c0 40 -1 42 -30 42 l-30 0 0 -275z"/>
<path d="M10000 285 l0 -275 29 0 30 0 3 205 3 205 37 36 c30 30 45 38 87 42
48 4 51 6 51 33 0 27 -3 29 -40 29 -49 0 -91 -20 -119 -56 l-21 -27 0 42 c0
39 -2 41 -30 41 l-30 0 0 -275z"/>
<path d="M10442 539 c-38 -19 -92 -73 -92 -93 0 -3 12 -11 26 -16 22 -9 29 -6
57 24 70 73 200 68 235 -10 16 -34 15 -79 -2 -93 -8 -7 -59 -19 -113 -27 -164
-25 -217 -63 -217 -159 0 -88 54 -149 146 -161 61 -9 122 11 163 52 l35 35 0
-41 c0 -40 1 -41 33 -38 l32 3 0 210 c0 193 -2 213 -21 250 -29 56 -88 85
-173 85 -47 0 -78 -6 -109 -21z m238 -304 c0 -64 -16 -102 -60 -138 -84 -71
-220 -31 -220 65 0 51 34 84 103 97 132 25 153 29 165 30 8 1 12 -16 12 -54z"/>
</g>
</svg>
