<?xml version="1.0" standalone="no"?>
<!DOCTYPE svg PUBLIC "-//W3C//DTD SVG 20010904//EN"
 "http://www.w3.org/TR/2001/REC-SVG-20010904/DTD/svg10.dtd">
<svg version="1.0" xmlns="http://www.w3.org/2000/svg"
 width="1080.000000pt" height="428.000000pt" viewBox="0 0 1080.000000 428.000000"
 preserveAspectRatio="xMidYMid meet">

<g transform="translate(0.000000,428.000000) scale(0.100000,-0.100000)"
fill="#000000" stroke="none">
<path d="M2290 3436 c-566 -101 -978 -501 -1102 -1069 -22 -99 -22 -119 -23
-752 l0 -650 380 0 380 0 5 635 c5 625 6 636 27 693 33 86 76 157 131 214 227
236 595 236 819 -1 81 -85 117 -148 143 -252 19 -73 20 -112 20 -686 l0 -608
380 0 380 0 0 648 c0 701 -2 732 -57 906 -144 458 -515 796 -993 908 -110 25
-381 33 -490 14z"/>
<path d="M5954 2676 c-48 -21 -61 -89 -24 -126 31 -31 102 -28 129 6 27 34 27
67 -1 98 -29 32 -64 39 -104 22z"/>
<path d="M6833 2678 c-11 -15 -63 -132 -63 -142 0 -3 25 -6 55 -6 l54 0 51 75
c27 41 50 77 50 80 0 11 -138 5 -147 -7z"/>
<path d="M8434 2680 c-28 -11 -54 -48 -54 -78 0 -83 154 -99 174 -18 9 36 -9
73 -43 91 -33 17 -46 18 -77 5z"/>
<path d="M4410 2285 l0 -355 85 0 85 0 0 109 0 109 98 4 c155 7 237 57 269
168 39 135 -35 273 -166 310 -20 5 -111 10 -203 10 l-168 0 0 -355z m319 201
c48 -25 65 -91 36 -146 -20 -39 -43 -50 -120 -57 l-65 -6 0 112 0 111 60 0
c34 0 73 -6 89 -14z"/>
<path d="M5630 2285 l0 -355 85 0 85 0 0 355 0 355 -85 0 -85 0 0 -355z"/>
<path d="M6240 2525 l0 -65 -35 0 -35 0 0 -60 0 -60 35 0 35 0 0 -157 c0 -141
2 -162 20 -191 35 -57 114 -82 213 -66 41 7 42 10 26 83 -10 48 -12 50 -47 53
l-37 3 -3 138 -3 137 46 0 45 0 0 60 0 60 -45 0 -45 0 0 65 0 65 -85 0 -85 0
0 -65z"/>
<path d="M5191 2459 c-59 -18 -115 -64 -146 -121 -27 -48 -30 -62 -30 -143 0
-79 4 -97 28 -143 49 -93 142 -139 260 -130 151 12 240 111 241 268 0 41 -6
92 -13 114 -17 49 -73 112 -125 138 -47 24 -162 33 -215 17z m152 -151 c23
-30 34 -115 23 -174 -15 -77 -91 -110 -141 -60 -53 53 -55 188 -3 243 32 34
93 29 121 -9z"/>
<path d="M6737 2456 c-92 -34 -148 -99 -168 -194 -31 -153 44 -295 176 -332
61 -17 169 -9 221 18 39 20 104 83 104 102 0 4 2 15 6 23 4 11 -10 15 -67 21
-70 6 -74 5 -101 -21 -23 -22 -39 -28 -74 -28 -39 0 -50 5 -75 33 -16 18 -29
43 -29 57 l0 25 175 0 175 0 0 53 c0 105 -50 191 -136 232 -50 24 -158 30
-207 11z m127 -116 c27 -10 69 -67 60 -82 -3 -4 -48 -8 -100 -8 -104 0 -111 6
-73 54 33 42 69 53 113 36z"/>
<path d="M7337 2454 c-66 -20 -129 -85 -152 -154 -26 -78 -17 -192 18 -253 54
-91 143 -134 259 -124 118 10 202 79 215 176 l6 41 -82 0 c-72 0 -81 -2 -81
-19 0 -28 -48 -71 -80 -71 -64 0 -106 71 -98 167 10 123 123 169 171 70 l19
-37 75 0 76 0 -6 42 c-18 131 -185 211 -340 162z"/>
<path d="M8013 2449 c-23 -11 -51 -35 -62 -52 l-21 -32 0 48 0 47 -80 0 -80 0
0 -265 0 -265 85 0 85 0 0 165 c0 208 10 235 90 235 15 0 38 -9 51 -19 23 -19
24 -24 27 -200 l3 -181 85 0 84 0 0 198 c0 248 -13 285 -113 327 -50 21 -104
19 -154 -6z"/>
<path d="M8821 2459 c-102 -31 -170 -123 -179 -239 -13 -189 106 -312 289
-297 72 6 130 30 166 69 27 29 53 89 53 123 0 24 -1 25 -74 25 l-74 0 -19 -37
c-33 -69 -108 -70 -147 -3 -30 50 -29 157 0 197 45 60 116 55 147 -10 l19 -37
74 0 74 0 0 30 c0 60 -48 128 -115 163 -46 23 -161 32 -214 16z"/>
<path d="M9401 2459 c-102 -31 -170 -123 -179 -239 -13 -189 106 -312 289
-297 82 7 135 33 183 89 41 48 58 99 60 178 1 113 -50 207 -138 252 -47 24
-161 33 -215 17z m131 -130 c28 -15 48 -70 48 -134 0 -97 -33 -145 -98 -145
-38 0 -68 33 -82 92 -32 128 43 234 132 187z"/>
<path d="M5910 2195 l0 -265 85 0 85 0 0 265 0 265 -85 0 -85 0 0 -265z"/>
<path d="M8380 2195 l0 -265 85 0 85 0 0 265 0 265 -85 0 -85 0 0 -265z"/>
<path d="M7114 1707 c-56 -49 -20 -137 57 -137 45 0 77 25 85 67 5 27 1 37
-24 63 -38 37 -80 40 -118 7z"/>
<path d="M5953 1671 c-137 -47 -213 -170 -213 -342 0 -121 29 -199 99 -269 70
-70 132 -95 241 -94 82 0 156 26 215 77 33 27 78 104 89 150 l6 27 -90 0 c-76
0 -90 -3 -90 -16 0 -9 -15 -31 -34 -50 -31 -31 -39 -34 -93 -34 -113 0 -168
68 -168 210 1 98 29 162 86 190 78 40 169 17 197 -50 l17 -40 88 0 87 0 -6 28
c-12 58 -60 137 -102 169 -81 62 -223 81 -329 44z"/>
<path d="M4770 1548 l0 -133 -19 31 c-49 81 -186 86 -269 10 -53 -48 -67 -92
-67 -216 0 -127 13 -166 74 -224 72 -69 202 -64 260 10 l21 27 0 -42 0 -41 85
0 85 0 0 355 0 355 -85 0 -85 0 0 -132z m-49 -178 c31 -17 52 -70 52 -130 0
-60 -21 -113 -52 -130 -71 -38 -141 27 -141 131 0 100 71 166 141 129z"/>
<path d="M8260 1325 l0 -355 85 0 85 0 0 48 0 47 19 -29 c68 -102 239 -87 305
27 44 76 56 222 24 307 -31 85 -106 140 -192 140 -56 0 -94 -18 -130 -60 l-26
-32 0 131 0 131 -85 0 -85 0 0 -355z m304 44 c34 -16 56 -66 56 -127 0 -59
-11 -93 -40 -122 -22 -22 -76 -26 -101 -7 -29 22 -49 75 -49 127 0 107 59 163
134 129z"/>
<path d="M5191 1496 c-53 -19 -111 -74 -137 -130 -45 -96 -28 -240 36 -318 47
-57 110 -83 205 -83 105 0 182 35 220 99 41 70 37 76 -48 76 -65 0 -76 -3 -97
-25 -34 -36 -107 -36 -143 0 -24 24 -40 69 -29 80 3 3 84 5 180 5 l175 0 -6
65 c-15 159 -108 246 -261 244 -33 0 -76 -6 -95 -13z m170 -135 c52 -52 42
-61 -66 -61 -87 0 -95 2 -95 19 0 11 14 31 31 45 43 36 91 35 130 -3z"/>
<path d="M6627 1496 c-59 -22 -103 -62 -133 -121 -22 -46 -27 -70 -27 -134 -1
-68 3 -87 29 -137 64 -129 216 -178 359 -115 117 52 173 203 130 349 -32 108
-126 172 -250 171 -38 0 -87 -6 -108 -13z m142 -121 c37 -19 56 -66 56 -140 0
-104 -60 -169 -123 -134 -84 46 -83 245 1 279 31 12 34 12 66 -5z"/>
<path d="M7090 1240 l0 -270 85 0 85 0 -2 268 -3 267 -82 3 -83 3 0 -271z"/>
<path d="M7367 1503 c-4 -3 -7 -125 -7 -270 l0 -263 85 0 85 0 0 174 c0 160 2
175 21 200 14 18 30 26 52 26 69 0 77 -23 77 -229 l0 -171 80 0 80 0 0 171 c0
205 8 229 75 229 67 0 75 -24 75 -229 l0 -171 85 0 85 0 0 203 c0 191 -1 205
-22 247 -32 61 -66 83 -137 88 -71 5 -123 -16 -154 -63 l-21 -32 -16 30 c-21
39 -74 67 -127 67 -58 0 -90 -14 -129 -57 l-34 -37 0 47 0 47 -73 0 c-41 0
-77 -3 -80 -7z"/>
<path d="M8887 1503 c-4 -3 -7 -125 -7 -270 l0 -263 85 0 85 0 0 150 c0 172
10 209 61 235 23 12 45 16 76 11 l44 -6 -3 73 -3 72 -43 3 c-51 4 -84 -14
-112 -61 l-20 -32 0 48 0 47 -78 0 c-43 0 -82 -3 -85 -7z"/>
<path d="M9416 1496 c-62 -23 -126 -97 -126 -146 0 -6 30 -10 75 -10 66 0 77
3 99 25 43 43 126 27 126 -24 0 -30 -23 -41 -111 -51 -156 -19 -214 -70 -206
-183 3 -49 8 -62 37 -92 64 -66 196 -68 261 -3 l29 30 0 -36 0 -36 81 0 80 0
-3 214 c-3 244 -5 249 -89 296 -55 30 -191 39 -253 16z m174 -326 c0 -56 -34
-90 -89 -90 -87 0 -97 87 -13 106 15 3 41 10 57 14 17 5 33 9 38 9 4 1 7 -17
7 -39z"/>
</g>
</svg>
